<svg width="49" height="49" viewBox="0 0 49 49" fill="none" xmlns="http://www.w3.org/2000/svg">
<g clip-path="url(#clip0_356:300)">
<path d="M48.7189 17.8917C48.4793 17.5993 48.1217 17.4287 47.7466 17.4287H42.9777C41.8008 14.3246 40.2677 11.2833 38.525 10.1353C32.4964 6.16926 16.506 6.16926 10.4775 10.1353C8.73353 11.2846 7.20663 14.3297 6.0235 17.4287H1.25461C0.875711 17.4287 0.519393 17.5993 0.282265 17.8917C0.0438837 18.1828 -0.051469 18.5679 0.0263187 18.9381L0.732682 22.3608C0.853127 22.9442 1.36753 23.3608 1.96097 23.3608H3.3737C2.00991 24.9342 1.34871 26.9153 1.33993 28.8977C1.33115 31.3468 2.26083 33.56 3.96087 35.1259C3.97969 35.1422 3.99851 35.1535 4.01608 35.1698V39.9589C4.01608 40.9965 4.8592 41.8409 5.89804 41.8409H10.2968C11.3357 41.8409 12.1788 40.9965 12.1788 39.9589V38.0342H36.8212V39.9589C36.8212 40.9965 37.6643 41.8409 38.7031 41.8409H43.1019C44.1382 41.8409 44.9839 40.9965 44.9839 39.9589V35.2639C46.788 33.6115 47.65 31.338 47.6613 29.0683C47.6688 27.0182 46.9775 24.9643 45.5334 23.3583H47.0402C47.6362 23.3583 48.1506 22.9417 48.2685 22.3571L48.9761 18.9356C49.0489 18.5679 48.9573 18.1853 48.7189 17.8917ZM12.5439 13.2782C17.3491 10.1152 31.6508 10.1152 36.4536 13.2782C37.387 13.8905 38.5877 16.366 39.688 19.3973H9.31192C10.4097 16.3672 11.6104 13.893 12.5439 13.2782ZM6.91555 29.3694C6.91555 27.3243 8.57419 25.6681 10.618 25.6681C12.6643 25.6681 14.3204 27.3243 14.3204 29.3694C14.3204 31.4145 12.6643 33.072 10.618 33.072C8.57419 33.072 6.91555 31.4145 6.91555 29.3694ZM38.4309 33.072C36.3871 33.072 34.7284 31.4145 34.7284 29.3694C34.7284 27.3243 36.3871 25.6681 38.4309 25.6681C40.4772 25.6681 42.1333 27.3243 42.1333 29.3694C42.1333 31.4145 40.4747 33.072 38.4309 33.072Z" fill="#219653"/>
</g>
<defs>
<clipPath id="clip0_356:300">
<rect width="49" height="49" fill="white"/>
</clipPath>
</defs>
</svg>
