<svg width="27" height="27" viewBox="0 0 27 27" fill="none" xmlns="http://www.w3.org/2000/svg">
<circle cx="13.5" cy="13.5" r="13.5" fill="#919793" fill-opacity="0.2"/>
<path d="M12.7676 16.9961C12.7806 16.2214 12.8685 15.6094 13.0312 15.1602C13.194 14.7109 13.526 14.2129 14.0273 13.666L15.3066 12.3477C15.8535 11.7292 16.127 11.0651 16.127 10.3555C16.127 9.67188 15.9479 9.13802 15.5898 8.75391C15.2318 8.36328 14.7109 8.16797 14.0273 8.16797C13.3633 8.16797 12.8294 8.34375 12.4258 8.69531C12.0221 9.04688 11.8203 9.51888 11.8203 10.1113H10.0137C10.0267 9.05664 10.401 8.20703 11.1367 7.5625C11.8789 6.91146 12.8424 6.58594 14.0273 6.58594C15.2578 6.58594 16.2148 6.91797 16.8984 7.58203C17.5885 8.23958 17.9336 9.14453 17.9336 10.2969C17.9336 11.4362 17.4062 12.5592 16.3516 13.666L15.2871 14.7207C14.8118 15.248 14.5742 16.0065 14.5742 16.9961H12.7676ZM12.6895 20.0918C12.6895 19.7988 12.7773 19.5547 12.9531 19.3594C13.1354 19.1576 13.4023 19.0566 13.7539 19.0566C14.1055 19.0566 14.3724 19.1576 14.5547 19.3594C14.737 19.5547 14.8281 19.7988 14.8281 20.0918C14.8281 20.3848 14.737 20.6289 14.5547 20.8242C14.3724 21.013 14.1055 21.1074 13.7539 21.1074C13.4023 21.1074 13.1354 21.013 12.9531 20.8242C12.7773 20.6289 12.6895 20.3848 12.6895 20.0918Z" fill="#219653"/>
</svg>
