<svg width="82" height="82" viewBox="0 0 82 82" fill="none" xmlns="http://www.w3.org/2000/svg">
<path d="M79.5977 33.3581H77.0967C76.4061 31.6348 75.4698 30.4003 74.6202 29.5507C72.4694 27.3996 70.0408 26.8059 69.3478 26.6754C67.2405 26.2781 63.8623 26.174 60.4622 26.1988C60.4521 26.1986 60.4423 26.1972 60.4322 26.1972C60.4321 26.1972 60.4319 26.1972 60.4318 26.1972L22.2627 26.2049C22.2577 26.2049 22.2531 26.2055 22.2483 26.2057C18.6146 26.1607 14.9062 26.2504 12.6522 26.6754C11.9592 26.8059 9.53058 27.3996 7.37984 29.5507C6.53021 30.4005 5.59378 31.6348 4.90334 33.3581H2.40234C1.07561 33.3581 0 34.4337 0 35.7604C0 37.0872 1.07561 38.1628 2.40234 38.1628H3.90237C3.88683 38.472 3.87834 38.7895 3.87834 39.116C3.87834 49.4783 10.8426 54.9728 17.3134 55.6927C17.9879 55.7678 18.6625 55.8048 19.3345 55.8048C23.7254 55.8046 27.9974 54.2228 31.2969 51.3254C33.9004 49.0395 36.9283 45.0035 38.1353 38.1626H43.8647C45.0717 45.0034 48.0996 49.0395 50.7031 51.3254C54.0029 54.2229 58.2743 55.8048 62.6655 55.8048C63.3372 55.8046 64.0124 55.7678 64.6866 55.6927C71.1573 54.9728 78.1217 49.4783 78.1217 39.116C78.1217 38.7895 78.1132 38.472 78.0976 38.1628H79.5977C80.9244 38.1628 82 37.0872 82 35.7604C82 34.4337 80.9244 33.3581 79.5977 33.3581ZM43.3607 33.3581H38.6393C38.6503 33.0764 38.6598 32.7923 38.6652 32.503C38.6749 31.992 38.615 31.49 38.4923 31.0064L43.5082 31.0054C43.3854 31.4894 43.3251 31.9916 43.3349 32.5032C43.3402 32.7923 43.3497 33.0764 43.3607 33.3581Z" fill="#219653"/>
</svg>
