<svg width="0" height="0" class="hidden">
  <symbol fill="none" xmlns="http://www.w3.org/2000/svg" viewBox="0 0 81 81" id="grass-blade_icon">
    <g clip-path="url(#clip0_347:345)">
      <path d="M27.0854 41.4341L13.6522 53.5105C12.3604 54.6718 11.6226 56.3272 11.6226 58.0644V61.6661H27.0854V41.4341Z" fill="white"></path>
      <path d="M74.1217 1.04613C73.2802 0.667918 72.2954 0.818548 71.6057 1.43122L30.3423 38.0669C31.2389 38.9345 31.7716 40.1414 31.7716 41.4341V43.0647L54.1725 23.176H64.0924C70.385 23.176 75.5044 18.0566 75.5044 11.764V3.18337C75.5044 2.26085 74.9632 1.42419 74.1217 1.04613ZM70.8182 11.764C70.8182 15.4725 67.801 18.4898 64.0924 18.4898H59.4506L70.8182 8.39721V11.764Z" fill="white"></path>
      <path d="M39.4729 69.9745C37.3532 67.6837 34.3471 66.3698 31.226 66.3698H6.99888C5.70487 66.3698 4.65576 67.4189 4.65576 68.7129C4.65576 70.0069 5.70487 71.056 6.99888 71.056H12.4642V76.485C12.4642 77.552 13.3291 78.409 14.3962 78.409H16.2975C16.2975 79.703 17.3466 80.7602 18.6407 80.7602C19.9348 80.7602 20.9838 79.7031 20.9838 78.409H31.6149C32.9089 78.409 33.958 77.3198 33.958 76.0257C33.958 74.7317 32.9089 73.6826 31.6149 73.6826H24.817V71.0562H31.2259C33.0453 71.0562 34.7975 71.8222 36.0332 73.1575L38.2083 75.508C38.67 76.007 39.2986 76.2597 39.9287 76.2597C40.498 76.2597 41.0687 76.0535 41.5195 75.6363C42.4695 74.7573 42.5267 73.2749 41.6479 72.3251L39.4729 69.9745Z" fill="white"></path>
    </g>
    <defs>
      <clipPath id="clip0_347:345">
        <rect width="79.92" height="79.92" fill="white" transform="translate(0.120117 0.840088)"></rect>
      </clipPath>
    </defs>
  </symbol>
  <symbol fill="none" xmlns="http://www.w3.org/2000/svg" viewBox="0 0 48 48" id="infographic-1_icon">
    <path d="M46.6935 35.2272L39.9949 28.5286C37.6026 26.1363 33.5356 27.0933 32.5787 30.2033C31.861 32.3565 29.4686 33.5526 27.3155 33.0741C22.5309 31.8779 16.0716 25.6578 14.8754 20.6339C14.1577 18.4807 15.5931 16.0884 17.7462 15.3708C20.8562 14.4138 21.8132 10.3469 19.4208 7.95452L12.7223 1.25598C10.8084 -0.418659 7.93761 -0.418659 6.26297 1.25598L1.71753 5.80142C-2.82791 10.5861 2.196 23.2655 13.44 34.5095C24.684 45.7534 37.3634 51.0167 42.148 46.2319L46.6935 41.6865C48.3682 39.7726 48.3682 36.9018 46.6935 35.2272Z" fill="#219653"></path>
  </symbol>
  <symbol fill="none" xmlns="http://www.w3.org/2000/svg" viewBox="0 0 51 51" id="infographic-2_icon">
    <g clip-path="url(#clip0_356:224)">
      <path d="M40.9063 0H10.0938C6.87013 0 4.25 2.62013 4.25 5.84375V45.1562C4.25 48.3799 6.87013 51 10.0938 51H40.9063C44.1299 51 46.75 48.3799 46.75 45.1562V5.84375C46.75 2.62013 44.1299 0 40.9063 0ZM20.7825 39.78C21.4051 40.4026 21.4051 41.412 20.7825 42.0346C20.4723 42.3449 20.0643 42.5 19.6563 42.5C19.2483 42.5 18.8403 42.3449 18.53 42.0325L17 40.5046L15.47 42.0346C15.1598 42.3449 14.7518 42.5 14.3438 42.5C13.9358 42.5 13.5278 42.3449 13.2175 42.0325C12.5949 41.4099 12.5949 40.4005 13.2175 39.7779L14.7454 38.25L13.2154 36.72C12.5928 36.0974 12.5928 35.088 13.2154 34.4654C13.838 33.8428 14.8474 33.8428 15.47 34.4654L17 35.9954L18.53 34.4654C19.1526 33.8428 20.162 33.8428 20.7846 34.4654C21.4073 35.088 21.4073 36.0974 20.7846 36.72L19.2546 38.25L20.7825 39.78ZM19.6563 27.0938H18.5938V28.1562C18.5938 29.036 17.8798 29.75 17 29.75C16.1203 29.75 15.4063 29.036 15.4063 28.1562V27.0938H14.3438C13.464 27.0938 12.75 26.3797 12.75 25.5C12.75 24.6203 13.464 23.9062 14.3438 23.9062H15.4063V22.8438C15.4063 21.964 16.1203 21.25 17 21.25C17.8798 21.25 18.5938 21.964 18.5938 22.8438V23.9062H19.6563C20.536 23.9062 21.25 24.6203 21.25 25.5C21.25 26.3797 20.536 27.0938 19.6563 27.0938ZM36.6563 42.5H31.3438C30.464 42.5 29.75 41.786 29.75 40.9062C29.75 40.0265 30.464 39.3125 31.3438 39.3125H36.6563C37.536 39.3125 38.25 40.0265 38.25 40.9062C38.25 41.786 37.536 42.5 36.6563 42.5ZM36.6563 37.1875H31.3438C30.464 37.1875 29.75 36.4735 29.75 35.5938C29.75 34.714 30.464 34 31.3438 34H36.6563C37.536 34 38.25 34.714 38.25 35.5938C38.25 36.4735 37.536 37.1875 36.6563 37.1875ZM36.6563 27.625H31.3438C30.464 27.625 29.75 26.911 29.75 26.0312C29.75 25.1515 30.464 24.4375 31.3438 24.4375H36.6563C37.536 24.4375 38.25 25.1515 38.25 26.0312C38.25 26.911 37.536 27.625 36.6563 27.625ZM40.375 13.2812C40.375 15.3319 38.7069 17 36.6563 17H14.3438C12.2931 17 10.625 15.3319 10.625 13.2812V10.0938C10.625 8.04313 12.2931 6.375 14.3438 6.375H36.6563C38.7069 6.375 40.375 8.04313 40.375 10.0938V13.2812Z" fill="#219653"></path>
    </g>
    <defs>
      <clipPath id="clip0_356:224">
        <rect width="51" height="51" fill="white"></rect>
      </clipPath>
    </defs>
  </symbol>
  <symbol fill="none" xmlns="http://www.w3.org/2000/svg" viewBox="0 0 49 49" id="infographic-3_icon">
    <g clip-path="url(#clip0_356:300)">
      <path d="M48.7189 17.8917C48.4793 17.5993 48.1217 17.4287 47.7466 17.4287H42.9777C41.8008 14.3246 40.2677 11.2833 38.525 10.1353C32.4964 6.16926 16.506 6.16926 10.4775 10.1353C8.73353 11.2846 7.20663 14.3297 6.0235 17.4287H1.25461C0.875711 17.4287 0.519393 17.5993 0.282265 17.8917C0.0438837 18.1828 -0.051469 18.5679 0.0263187 18.9381L0.732682 22.3608C0.853127 22.9442 1.36753 23.3608 1.96097 23.3608H3.3737C2.00991 24.9342 1.34871 26.9153 1.33993 28.8977C1.33115 31.3468 2.26083 33.56 3.96087 35.1259C3.97969 35.1422 3.99851 35.1535 4.01608 35.1698V39.9589C4.01608 40.9965 4.8592 41.8409 5.89804 41.8409H10.2968C11.3357 41.8409 12.1788 40.9965 12.1788 39.9589V38.0342H36.8212V39.9589C36.8212 40.9965 37.6643 41.8409 38.7031 41.8409H43.1019C44.1382 41.8409 44.9839 40.9965 44.9839 39.9589V35.2639C46.788 33.6115 47.65 31.338 47.6613 29.0683C47.6688 27.0182 46.9775 24.9643 45.5334 23.3583H47.0402C47.6362 23.3583 48.1506 22.9417 48.2685 22.3571L48.9761 18.9356C49.0489 18.5679 48.9573 18.1853 48.7189 17.8917ZM12.5439 13.2782C17.3491 10.1152 31.6508 10.1152 36.4536 13.2782C37.387 13.8905 38.5877 16.366 39.688 19.3973H9.31192C10.4097 16.3672 11.6104 13.893 12.5439 13.2782ZM6.91555 29.3694C6.91555 27.3243 8.57419 25.6681 10.618 25.6681C12.6643 25.6681 14.3204 27.3243 14.3204 29.3694C14.3204 31.4145 12.6643 33.072 10.618 33.072C8.57419 33.072 6.91555 31.4145 6.91555 29.3694ZM38.4309 33.072C36.3871 33.072 34.7284 31.4145 34.7284 29.3694C34.7284 27.3243 36.3871 25.6681 38.4309 25.6681C40.4772 25.6681 42.1333 27.3243 42.1333 29.3694C42.1333 31.4145 40.4747 33.072 38.4309 33.072Z" fill="#219653"></path>
    </g>
    <defs>
      <clipPath id="clip0_356:300">
        <rect width="49" height="49" fill="white"></rect>
      </clipPath>
    </defs>
  </symbol>
  <symbol fill="none" xmlns="http://www.w3.org/2000/svg" viewBox="0 0 82 82" id="infographic-4_icon">
    <path d="M79.5977 33.3581H77.0967C76.4061 31.6348 75.4698 30.4003 74.6202 29.5507C72.4694 27.3996 70.0408 26.8059 69.3478 26.6754C67.2405 26.2781 63.8623 26.174 60.4622 26.1988C60.4521 26.1986 60.4423 26.1972 60.4322 26.1972C60.4321 26.1972 60.4319 26.1972 60.4318 26.1972L22.2627 26.2049C22.2577 26.2049 22.2531 26.2055 22.2483 26.2057C18.6146 26.1607 14.9062 26.2504 12.6522 26.6754C11.9592 26.8059 9.53058 27.3996 7.37984 29.5507C6.53021 30.4005 5.59378 31.6348 4.90334 33.3581H2.40234C1.07561 33.3581 0 34.4337 0 35.7604C0 37.0872 1.07561 38.1628 2.40234 38.1628H3.90237C3.88683 38.472 3.87834 38.7895 3.87834 39.116C3.87834 49.4783 10.8426 54.9728 17.3134 55.6927C17.9879 55.7678 18.6625 55.8048 19.3345 55.8048C23.7254 55.8046 27.9974 54.2228 31.2969 51.3254C33.9004 49.0395 36.9283 45.0035 38.1353 38.1626H43.8647C45.0717 45.0034 48.0996 49.0395 50.7031 51.3254C54.0029 54.2229 58.2743 55.8048 62.6655 55.8048C63.3372 55.8046 64.0124 55.7678 64.6866 55.6927C71.1573 54.9728 78.1217 49.4783 78.1217 39.116C78.1217 38.7895 78.1132 38.472 78.0976 38.1628H79.5977C80.9244 38.1628 82 37.0872 82 35.7604C82 34.4337 80.9244 33.3581 79.5977 33.3581ZM43.3607 33.3581H38.6393C38.6503 33.0764 38.6598 32.7923 38.6652 32.503C38.6749 31.992 38.615 31.49 38.4923 31.0064L43.5082 31.0054C43.3854 31.4894 43.3251 31.9916 43.3349 32.5032C43.3402 32.7923 43.3497 33.0764 43.3607 33.3581Z" fill="#219653"></path>
  </symbol>
  <symbol fill="none" xmlns="http://www.w3.org/2000/svg" viewBox="0 0 53 53" id="infographic-5_icon">
    <g clip-path="url(#clip0_356:273)">
      <path d="M38.138 11.0616L33.4497 3.02985C33.2267 2.64781 32.8601 2.36956 32.4317 2.25914C32.0055 2.15314 31.5483 2.21498 31.1685 2.44243L16.8364 11.0417L38.138 11.0616Z" fill="#219653"></path>
      <path d="M6.625 13.25C5.41042 13.25 4.41667 12.2562 4.41667 11.0416C4.41667 9.82704 5.41042 8.83329 6.625 8.83329H14.0671L21.4429 4.41663H6.625C3.35667 4.41663 0.640417 6.80163 0.110417 9.93746C0.06625 10.1141 0 10.2908 0 10.4895V44.1666C0 47.8104 2.98125 50.7916 6.625 50.7916H44.1667C46.5958 50.7916 48.5833 48.8041 48.5833 46.375V41.9583H43.0625C37.5858 41.9583 33.125 37.4975 33.125 32.0208C33.125 26.5441 37.5858 22.0833 43.0625 22.0833H48.5833V17.6666C48.5833 15.2375 46.5958 13.25 44.1667 13.25H6.625ZM41.9583 8.83329C41.9583 6.60288 40.3021 4.74788 38.1379 4.46079L41.9583 11.0416V8.83329Z" fill="#219653"></path>
      <path d="M51.3437 25.3959H43.0625C39.4099 25.3959 36.4375 28.3683 36.4375 32.0209C36.4375 35.6735 39.4099 38.6459 43.0625 38.6459H51.3437C52.258 38.6459 53 37.9039 53 36.9896V27.0521C53 26.1379 52.258 25.3959 51.3437 25.3959ZM43.0625 34.2292C41.8435 34.2292 40.8542 33.2399 40.8542 32.0209C40.8542 30.8019 41.8435 29.8125 43.0625 29.8125C44.2815 29.8125 45.2708 30.8019 45.2708 32.0209C45.2708 33.2399 44.2815 34.2292 43.0625 34.2292Z" fill="#219653"></path>
    </g>
    <defs>
      <clipPath id="clip0_356:273">
        <rect width="53" height="53" fill="white"></rect>
      </clipPath>
    </defs>
  </symbol>
  <symbol fill="none" xmlns="http://www.w3.org/2000/svg" viewBox="0 0 27 27" id="info-popup_icon">
    <circle cx="13.5" cy="13.5" r="13.5" fill="#919793" fill-opacity="0.2"></circle>
    <path d="M12.7676 16.9961C12.7806 16.2214 12.8685 15.6094 13.0312 15.1602C13.194 14.7109 13.526 14.2129 14.0273 13.666L15.3066 12.3477C15.8535 11.7292 16.127 11.0651 16.127 10.3555C16.127 9.67188 15.9479 9.13802 15.5898 8.75391C15.2318 8.36328 14.7109 8.16797 14.0273 8.16797C13.3633 8.16797 12.8294 8.34375 12.4258 8.69531C12.0221 9.04688 11.8203 9.51888 11.8203 10.1113H10.0137C10.0267 9.05664 10.401 8.20703 11.1367 7.5625C11.8789 6.91146 12.8424 6.58594 14.0273 6.58594C15.2578 6.58594 16.2148 6.91797 16.8984 7.58203C17.5885 8.23958 17.9336 9.14453 17.9336 10.2969C17.9336 11.4362 17.4062 12.5592 16.3516 13.666L15.2871 14.7207C14.8118 15.248 14.5742 16.0065 14.5742 16.9961H12.7676ZM12.6895 20.0918C12.6895 19.7988 12.7773 19.5547 12.9531 19.3594C13.1354 19.1576 13.4023 19.0566 13.7539 19.0566C14.1055 19.0566 14.3724 19.1576 14.5547 19.3594C14.737 19.5547 14.8281 19.7988 14.8281 20.0918C14.8281 20.3848 14.737 20.6289 14.5547 20.8242C14.3724 21.013 14.1055 21.1074 13.7539 21.1074C13.4023 21.1074 13.1354 21.013 12.9531 20.8242C12.7773 20.6289 12.6895 20.3848 12.6895 20.0918Z" fill="#219653"></path>
  </symbol>
  <symbol fill="none" xmlns="http://www.w3.org/2000/svg" viewBox="0 0 203 41" id="logo_header">
    <path fill-rule="evenodd" clip-rule="evenodd" d="M21.3819 39.8072C21.7263 39.8072 21.9144 39.5488 22.1003 39.3291L22.3692 39.0372C22.4628 38.942 22.5327 38.8309 22.6263 38.7336C22.9013 38.448 23.1341 38.1182 23.3989 37.8241L24.9679 36.0044C25.0605 35.9081 25.136 35.8011 25.2258 35.7015C25.8258 35.035 26.7153 33.9681 27.2946 33.2602C27.7148 32.7467 28.1371 32.2167 28.6095 31.747L28.885 31.4373C29.169 31.0724 29.5068 30.7351 29.7921 30.3697C30.0789 30.0024 30.4152 29.6741 30.7166 29.3194L31.2447 28.7259C31.5675 28.3665 31.9994 27.8831 32.2931 27.507C32.3724 27.4053 32.4659 27.3144 32.5524 27.2056C32.9728 26.6764 33.4353 26.2049 33.852 25.6772L34.5061 24.9172C34.567 24.8538 34.5796 24.8212 34.6406 24.7592L35.6844 23.56C35.8668 23.3454 36.0205 23.1474 36.1995 22.9293L37.4985 21.4004C37.7496 21.1033 38.1533 20.8134 38.1533 20.3501V14.0908C38.1533 13.7521 37.7884 13.5695 37.5616 13.3904L33.1725 9.96983C33.0434 9.87474 32.928 9.78299 32.8025 9.6809C32.145 9.1465 32.2001 9.50039 31.3893 10.5036C31.2843 10.6335 31.1937 10.7526 31.086 10.8828L29.887 12.3651C29.7867 12.4897 29.6929 12.6094 29.596 12.7322L25.4663 17.9865C25.3618 18.118 25.2583 18.2305 25.1545 18.3573C24.7527 18.8484 24.339 19.3348 23.9565 19.8406L20.7369 23.9817C20.6144 24.1417 20.6126 24.2749 20.621 24.548L20.6701 26.1492C20.6739 26.2756 20.6966 26.3146 20.696 26.4632C20.695 26.6995 20.6935 26.9212 20.7163 27.1224C20.7388 27.3206 20.7086 27.5692 20.7198 27.774C20.7261 27.8903 20.7456 27.9412 20.7447 28.0889C20.7441 28.2023 20.7448 28.3156 20.7444 28.429L20.7689 29.3995C20.7752 29.5158 20.7946 29.5666 20.7938 29.7144C20.7925 29.9431 20.7924 30.1556 20.8144 30.3491L20.9148 33.5977C20.932 33.804 20.9001 34.0439 20.9174 34.2502C20.9789 34.9855 20.9509 36.0837 21.0129 36.8244C21.0306 37.0362 20.9941 37.2907 21.0177 37.4989C21.0397 37.6923 21.0397 37.9048 21.0383 38.1335L21.0632 38.7882C21.0631 39.0335 21.0891 39.1892 21.0867 39.42C21.0848 39.617 21.166 39.8072 21.3819 39.8072ZM11.0347 5.59952C11.0347 5.83245 11.4632 6.18292 11.6294 6.34543C11.7196 6.43368 11.7612 6.50173 11.8498 6.58835L13.8484 8.58961C13.9388 8.67836 13.9822 8.74761 14.0686 8.83266L15.8467 10.6397C16.0062 10.7976 16.1281 10.9425 16.288 11.1007L17.612 12.4593C17.7489 12.5947 17.8986 12.8238 18.1454 12.8292C18.1454 12.392 18.1958 11.9504 18.1939 11.6399L18.2667 10.4504C18.2893 10.1793 18.2658 9.89712 18.2961 9.6304C18.3109 9.49998 18.3141 9.40039 18.316 9.23772C18.3178 9.092 18.3433 9.02167 18.3415 8.85049L18.4218 7.23163C18.4826 6.79307 18.4977 5.19129 18.5518 4.83724C18.5726 4.70181 18.5522 4.57135 18.5635 4.4363L18.7586 0.844691C18.7509 0.0354067 18.9248 -0.251814 17.9079 0.245624C17.7632 0.316419 17.3775 0.623724 17.217 0.750729C17.1353 0.815357 17.0651 0.860734 16.9788 0.927487C16.8158 1.05345 16.6741 1.16671 16.5096 1.28813L13.2829 3.74819C12.7119 4.2095 11.8231 4.86349 11.1918 5.34255C11.1185 5.39826 11.0347 5.48456 11.0347 5.59952ZM19.9354 1.40234C19.9469 1.6116 19.9143 1.87503 19.942 2.07512C20.0326 3.04079 19.9172 20.6869 20.6156 20.8899C20.756 20.9308 21.0562 20.545 21.1576 20.4192L22.3195 19.1428C22.3797 19.0785 22.4346 19.0383 22.489 18.9708L22.983 18.4164C23.1679 18.1974 23.4663 17.9163 23.6586 17.6778C23.713 17.6103 23.7679 17.5702 23.8281 17.5058C23.8931 17.4363 23.9136 17.3947 23.9869 17.3234C24.0619 17.2505 24.0845 17.2241 24.149 17.1441C24.3617 16.8802 24.8015 16.4978 25.0168 16.2559L25.6795 15.5287C25.9594 15.2418 26.2265 14.8838 26.5127 14.6064C26.5878 14.5337 26.6071 14.4976 26.6723 14.4246L27.1758 13.8796C27.4024 13.6114 27.7853 13.2781 28.0456 13.0178L28.3873 12.6523C28.5454 12.4652 28.7366 12.2935 28.8886 12.105C28.9573 12.0197 28.984 11.9913 29.063 11.9137C29.3178 11.6637 29.7808 11.1044 30.068 10.8217L31.2574 9.57244C31.3335 9.49802 31.3582 9.44968 31.4284 9.37768C31.9713 8.81991 31.6348 8.78649 31.0595 8.32439L25.6272 4.09204C25.5011 3.99908 25.4006 3.9122 25.2698 3.81486L23.8171 2.68064C23.5705 2.48255 23.3376 2.31146 23.0906 2.11362L21.2782 0.704519C21.0685 0.533761 20.7751 0.271667 20.5407 0.148453C19.8311 -0.292732 19.9093 0.694727 19.9354 1.40234ZM24.2752 39.6616C24.2752 39.7271 24.287 39.7285 24.2998 39.7829C24.3548 39.7956 24.3562 39.8072 24.4224 39.8072H36.0691C36.3005 39.8072 36.7101 39.6025 36.864 39.5019C36.9888 39.4203 37.0795 39.3586 37.1914 39.2679C37.5317 38.9922 37.7145 38.6924 37.9085 38.3034C37.9993 38.1213 38.1533 37.6945 38.1533 37.4296V21.8057C38.1533 21.731 38.1193 21.733 38.0553 21.733C37.9636 21.733 37.6714 22.1666 37.6034 22.2563L36.6397 23.5105C36.3359 23.8216 35.2132 25.313 34.7872 25.8746C33.8703 27.0834 32.8738 28.3071 31.9744 29.4964C31.112 30.6368 30.281 31.7348 29.3893 32.8581C29.2392 33.0471 29.0977 33.2096 28.9551 33.399L27.6695 35.111C27.379 35.4922 27.101 35.8514 26.804 36.2198L25.5188 37.908C25.4438 38.0074 25.3766 38.087 25.3051 38.1817L24.4291 39.3043C24.3589 39.3964 24.2752 39.5111 24.2752 39.6616ZM0.932618 13.363C0.932618 13.5501 1.00518 13.668 1.13472 13.7938C1.57433 14.2206 1.98498 14.7806 2.3736 15.2609C2.62114 15.5573 2.84092 15.8808 3.10872 16.1591C3.37698 16.4377 3.60582 16.749 3.85778 17.0433C3.94601 17.1464 4.01958 17.2221 4.106 17.3315L5.37065 18.7974C5.73581 19.2676 6.24289 19.7984 6.63837 20.2603L7.3876 21.1444C7.90879 21.7235 8.3813 22.343 8.89605 22.9271L11.4207 25.8393C11.5081 25.9364 11.5808 26.0291 11.6645 26.1318C11.7545 26.2424 11.8337 26.3297 11.9208 26.4361L12.9172 27.6337C12.966 27.6891 12.9926 27.7257 13.0398 27.7793L14.0569 28.9322C14.2417 29.1121 14.4 29.3247 14.5712 29.515L15.9386 31.1461C16.0157 31.2442 16.1067 31.339 16.1839 31.4371C16.2661 31.5415 16.3459 31.6385 16.4366 31.7451C16.5235 31.8473 16.828 32.2864 16.9929 32.2864C17.18 32.2864 17.1308 32.0759 17.14 31.8981C17.4333 26.2102 18.0031 20.2203 18.0486 14.5758C18.0507 14.3147 17.9645 14.3083 17.7496 14.0457L17.3792 13.6115C17.0409 13.2749 16.5623 12.6787 16.1899 12.3137L15.0127 11.0281C14.6472 10.6211 14.0609 9.89379 13.7378 9.57236L11.9982 7.72732C11.8245 7.5221 11.6656 7.34051 11.482 7.14638L11.1023 6.72136C10.9662 6.56981 10.5681 6.03625 10.3972 6.03625C10.2485 6.03625 10.1357 6.15034 10.0297 6.23059L8.54786 7.36035C7.95348 7.81982 7.34427 8.25009 6.76067 8.72165C6.18174 9.18938 5.56449 9.60365 4.98599 10.071C4.7865 10.2323 4.5924 10.3702 4.39325 10.5278C3.90689 10.9128 3.39475 11.2664 2.91108 11.6572L2.31333 12.109C2.21011 12.1924 2.1122 12.2683 2.01176 12.3443L1.42298 12.805C1.36428 12.8497 1.34975 12.8693 1.29449 12.9204C1.23541 12.9751 1.20736 12.9835 1.14668 13.041C1.0734 13.1104 0.932618 13.2401 0.932618 13.363ZM0.589355 14.6003V37.187C0.589355 37.8626 0.773221 38.5046 1.24476 38.9889C1.44197 39.1915 1.67882 39.4099 1.93726 39.541C2.13692 39.6423 2.62008 39.8072 2.91875 39.8072H16.5271C16.7234 39.8072 16.7373 39.6514 16.7487 39.4685L16.779 38.9162C16.8138 38.6649 16.8172 38.3426 16.8204 38.0837C16.8219 37.9529 16.843 37.9408 16.8466 37.8186L16.9186 36.1673C16.9223 36.0452 16.9432 36.033 16.9449 35.9022C16.9514 35.374 16.9092 35.4433 16.492 34.8926L13.6933 31.257C13.6026 31.1374 13.5291 31.0404 13.4411 30.9243C12.1657 29.242 10.8231 27.4195 9.52484 25.7743L8.74402 24.7758C8.69411 24.7125 8.66316 24.678 8.61419 24.6131L3.2936 17.6259C3.12156 17.3977 2.95004 17.1995 2.77864 16.9709L0.995872 14.659C0.961213 14.6148 0.89438 14.5278 0.860352 14.5008C0.778737 14.4361 0.589355 14.4317 0.589355 14.6003Z" fill="url(#paint0_radial_402:82)"></path>
    <path d="M50.4893 34V13.7607H62.6353V34H58.2285V16.959H54.896V34H50.4893ZM71.4121 34.2808C70.2891 34.2808 69.3288 34.1343 68.5312 33.8413C67.7419 33.5402 67.1112 33.0967 66.6392 32.5107C66.1753 31.9167 65.8376 31.2209 65.626 30.4233C65.4225 29.6258 65.3208 28.6859 65.3208 27.6035V20.1328C65.3208 19.0423 65.4225 18.1024 65.626 17.313C65.8376 16.5155 66.1753 15.8237 66.6392 15.2378C67.1112 14.6519 67.7419 14.2124 68.5312 13.9194C69.3288 13.6265 70.2891 13.48 71.4121 13.48C73.6012 13.48 75.1678 14.0415 76.1118 15.1646C77.064 16.2795 77.54 17.9355 77.54 20.1328V27.6035C77.54 29.8008 77.064 31.465 76.1118 32.5962C75.1678 33.7192 73.6012 34.2808 71.4121 34.2808ZM70.7163 30.9727C70.9116 31.0703 71.1436 31.1191 71.4121 31.1191C71.6807 31.1191 71.9126 31.0744 72.1079 30.9849C72.3032 30.8872 72.4538 30.7692 72.5596 30.6309C72.6654 30.4844 72.7467 30.2972 72.8037 30.0693C72.8688 29.8415 72.9095 29.6299 72.9258 29.4346C72.9421 29.2311 72.9502 28.991 72.9502 28.7144V19.0098C72.9502 18.7412 72.9421 18.5093 72.9258 18.314C72.9095 18.1105 72.8688 17.8989 72.8037 17.6792C72.7467 17.4513 72.6654 17.2682 72.5596 17.1299C72.4538 16.9915 72.3032 16.8776 72.1079 16.7881C71.9126 16.6904 71.6807 16.6416 71.4121 16.6416C71.1436 16.6416 70.9116 16.6904 70.7163 16.7881C70.5291 16.8776 70.3826 16.9915 70.2769 17.1299C70.1711 17.2601 70.0897 17.4432 70.0327 17.6792C69.9757 17.9071 69.9391 18.1146 69.9229 18.3018C69.9147 18.4889 69.9106 18.7249 69.9106 19.0098V28.7144C69.9106 28.9992 69.9147 29.2393 69.9229 29.4346C69.9391 29.6217 69.9757 29.8333 70.0327 30.0693C70.0897 30.2972 70.1711 30.4803 70.2769 30.6187C70.3826 30.757 70.5291 30.875 70.7163 30.9727ZM80.311 34V13.7607H84.791V21.8052H85.2183L88.1968 13.7607H92.6279L88.9536 23.2578L92.7622 34H88.1724L85.2183 25.1377H84.791V34H80.311ZM100.343 34.2808C99.2197 34.2808 98.2594 34.1343 97.4619 33.8413C96.6725 33.5402 96.0418 33.0967 95.5698 32.5107C95.106 31.9167 94.7682 31.2209 94.5566 30.4233C94.3532 29.6258 94.2515 28.6859 94.2515 27.6035V20.1328C94.2515 19.0423 94.3532 18.1024 94.5566 17.313C94.7682 16.5155 95.106 15.8237 95.5698 15.2378C96.0418 14.6519 96.6725 14.2124 97.4619 13.9194C98.2594 13.6265 99.2197 13.48 100.343 13.48C102.532 13.48 104.098 14.0415 105.042 15.1646C105.995 16.2795 106.471 17.9355 106.471 20.1328V27.6035C106.471 29.8008 105.995 31.465 105.042 32.5962C104.098 33.7192 102.532 34.2808 100.343 34.2808ZM99.647 30.9727C99.8423 31.0703 100.074 31.1191 100.343 31.1191C100.611 31.1191 100.843 31.0744 101.039 30.9849C101.234 30.8872 101.384 30.7692 101.49 30.6309C101.596 30.4844 101.677 30.2972 101.734 30.0693C101.799 29.8415 101.84 29.6299 101.856 29.4346C101.873 29.2311 101.881 28.991 101.881 28.7144V19.0098C101.881 18.7412 101.873 18.5093 101.856 18.314C101.84 18.1105 101.799 17.8989 101.734 17.6792C101.677 17.4513 101.596 17.2682 101.49 17.1299C101.384 16.9915 101.234 16.8776 101.039 16.7881C100.843 16.6904 100.611 16.6416 100.343 16.6416C100.074 16.6416 99.8423 16.6904 99.647 16.7881C99.4598 16.8776 99.3133 16.9915 99.2075 17.1299C99.1017 17.2601 99.0203 17.4432 98.9634 17.6792C98.9064 17.9071 98.8698 18.1146 98.8535 18.3018C98.8454 18.4889 98.8413 18.7249 98.8413 19.0098V28.7144C98.8413 28.9992 98.8454 29.2393 98.8535 29.4346C98.8698 29.6217 98.9064 29.8333 98.9634 30.0693C99.0203 30.2972 99.1017 30.4803 99.2075 30.6187C99.3133 30.757 99.4598 30.875 99.647 30.9727ZM114.955 34.2808C113.823 34.2808 112.859 34.1261 112.062 33.8169C111.264 33.4995 110.633 33.0356 110.169 32.4253C109.714 31.8149 109.384 31.111 109.181 30.3135C108.977 29.516 108.875 28.5801 108.875 27.5059V20.2915C108.875 19.1929 108.977 18.2407 109.181 17.4351C109.384 16.6213 109.714 15.9132 110.169 15.311C110.633 14.7007 111.26 14.245 112.049 13.9438C112.847 13.6346 113.815 13.48 114.955 13.48C116.045 13.48 116.973 13.6183 117.738 13.895C118.511 14.1717 119.113 14.5786 119.544 15.1157C119.984 15.6528 120.297 16.2632 120.484 16.9468C120.68 17.6304 120.777 18.4238 120.777 19.3271V21.1094H116.407V19.0708C116.407 18.7534 116.403 18.5133 116.395 18.3506C116.387 18.1878 116.358 17.9803 116.31 17.728C116.261 17.4676 116.188 17.2723 116.09 17.1421C116 17.0119 115.858 16.8979 115.663 16.8003C115.467 16.6945 115.231 16.6416 114.955 16.6416C114.678 16.6416 114.442 16.6945 114.247 16.8003C114.051 16.8979 113.901 17.02 113.795 17.1665C113.697 17.3049 113.616 17.5002 113.551 17.7524C113.494 17.9966 113.457 18.2204 113.441 18.4238C113.433 18.6273 113.429 18.8796 113.429 19.1807V28.6167C113.429 29.4305 113.535 30.0531 113.746 30.4844C113.958 30.9076 114.361 31.1191 114.955 31.1191C115.223 31.1191 115.451 31.0703 115.638 30.9727C115.833 30.8669 115.98 30.7448 116.078 30.6064C116.175 30.4681 116.249 30.2728 116.297 30.0205C116.354 29.7682 116.387 29.5485 116.395 29.3613C116.403 29.1742 116.407 28.9259 116.407 28.6167V26.4927H120.777V28.2383C120.777 28.9626 120.72 29.6177 120.606 30.2036C120.493 30.7896 120.297 31.3429 120.021 31.8638C119.752 32.3765 119.398 32.8078 118.958 33.1577C118.527 33.5076 117.974 33.7843 117.298 33.9878C116.623 34.1831 115.842 34.2808 114.955 34.2808ZM131.507 34V17.0688H128.395V13.7607H139.063V17.0688H135.987V34H131.507ZM145.265 22.269H146.693C147.499 22.269 148.032 22.0656 148.292 21.6587C148.561 21.2437 148.695 20.5438 148.695 19.5591C148.695 19.2091 148.683 18.9162 148.658 18.6802C148.642 18.4442 148.593 18.2041 148.512 17.96C148.438 17.7158 148.329 17.5246 148.182 17.3862C148.044 17.2397 147.848 17.1217 147.596 17.0322C147.344 16.9427 147.039 16.8979 146.681 16.8979H145.265V22.269ZM140.797 34V13.7607H147.547C149.338 13.7607 150.676 14.2612 151.563 15.2622C152.451 16.2632 152.894 17.7199 152.894 19.6323C152.894 20.3892 152.825 21.0687 152.687 21.6709C152.556 22.2731 152.361 22.7817 152.101 23.1968C151.84 23.6118 151.539 23.9658 151.197 24.2588C150.855 24.5436 150.457 24.7674 150.001 24.9302C149.545 25.0929 149.077 25.2109 148.597 25.2842C148.125 25.3493 147.6 25.3818 147.022 25.3818H145.265V34H140.797ZM158.863 27.0298H161.024L159.938 19.1929L158.863 27.0298ZM153.553 34L157.386 13.7607H162.44L166.249 34H162.123L161.427 29.7031H158.473L157.789 34H153.553ZM172.853 21.854H173.695C174.655 21.854 175.31 21.6383 175.66 21.207C176.01 20.7676 176.185 20.084 176.185 19.1562C176.185 17.5612 175.31 16.7637 173.561 16.7637H172.853V21.854ZM172.853 30.875H173.78C174.749 30.875 175.428 30.639 175.819 30.167C176.209 29.695 176.405 28.9504 176.405 27.9331C176.405 26.7938 176.205 25.9881 175.807 25.5161C175.408 25.0441 174.712 24.8081 173.719 24.8081H172.853V30.875ZM168.373 34V13.7607H173.646C174.403 13.7607 175.074 13.8014 175.66 13.8828C176.254 13.9561 176.84 14.1066 177.418 14.3345C178.004 14.5623 178.484 14.8675 178.858 15.25C179.241 15.6243 179.546 16.137 179.774 16.7881C179.986 17.3903 180.091 18.0902 180.091 18.8877C180.091 18.9447 180.091 19.0016 180.091 19.0586C180.042 21.4186 179.05 22.7736 177.113 23.1235C178.277 23.2782 179.164 23.7664 179.774 24.5884C180.384 25.4103 180.698 26.5456 180.714 27.9941C180.714 28.0511 180.714 28.1121 180.714 28.1772C180.714 30.1385 180.201 31.5911 179.176 32.5352C178.118 33.5117 176.592 34 174.598 34H168.373ZM196.217 34V13.7607H200.697V34H196.217ZM187.574 31.0459H188.148C188.986 31.0459 189.576 30.8099 189.918 30.3379C190.243 29.8984 190.406 29.2026 190.406 28.2505C190.406 28.1854 190.406 28.1162 190.406 28.043C190.382 27.1885 190.203 26.5334 189.869 26.0776C189.535 25.6219 188.941 25.394 188.087 25.394H187.574V31.0459ZM183.094 34V13.7607H187.574V22.3057H188.502C190.488 22.3057 191.989 22.7777 193.006 23.7217C194.032 24.6576 194.544 26.1265 194.544 28.1284C194.544 28.8201 194.487 29.4468 194.374 30.0083C194.26 30.5698 194.101 31.054 193.897 31.4609C193.702 31.8597 193.45 32.2096 193.141 32.5107C192.84 32.8118 192.514 33.056 192.164 33.2432C191.814 33.4303 191.415 33.5809 190.968 33.6948C190.52 33.8088 190.069 33.8901 189.613 33.939C189.165 33.9797 188.669 34 188.124 34H183.094Z" fill="#333333"></path>
    <defs>
      <radialGradient id="paint0_radial_402:82" cx="0" cy="0" r="1" gradientUnits="userSpaceOnUse" gradientTransform="translate(24.6283 12.7379) scale(33.8671 35.8898)">
        <stop stop-color="#5DB93E"></stop>
        <stop offset="1" stop-color="#0A703A"></stop>
      </radialGradient>
    </defs>
  </symbol>
  <symbol fill="none" xmlns="http://www.w3.org/2000/svg" viewBox="0 0 17 18" id="phone_icon">
    <path d="M16.5373 12.9763L14.1649 10.6039C13.3176 9.7566 11.8772 10.0955 11.5383 11.197C11.2841 11.9596 10.4368 12.3832 9.67426 12.2137C7.97969 11.7901 5.69202 9.58714 5.26837 7.80784C5.01419 7.04525 5.52256 6.19797 6.28512 5.94381C7.38659 5.6049 7.7255 4.16451 6.87822 3.31723L4.50582 0.944825C3.82799 0.351725 2.81125 0.351725 2.21815 0.944825L0.608302 2.55467C-1.00154 4.24924 0.777759 8.73986 4.76 12.7221C8.74225 16.7043 13.2329 18.5684 14.9274 16.8738L16.5373 15.264C17.1304 14.5861 17.1304 13.5694 16.5373 12.9763Z" fill="#219653"></path>
  </symbol>
  <symbol fill="none" xmlns="http://www.w3.org/2000/svg" viewBox="0 0 90 90" id="purse_icon">
    <g clip-path="url(#clip0_347:355)">
      <path d="M64.4993 18.9733L56.6442 5.51637C56.2705 4.87627 55.6563 4.41007 54.9385 4.22507C54.2244 4.04747 53.4585 4.15107 52.8221 4.53217L28.8091 18.94L64.4993 18.9733Z" fill="white"></path>
      <path d="M11.7001 22.6399C9.6651 22.6399 8.0001 20.9749 8.0001 18.9399C8.0001 16.9049 9.6651 15.2399 11.7001 15.2399H24.1691L36.5271 7.83992H11.7001C6.2241 7.83992 1.6731 11.8359 0.785098 17.0899C0.711098 17.3859 0.600098 17.6819 0.600098 18.0149V74.4399C0.600098 80.5449 5.5951 85.5399 11.7001 85.5399H74.6001C78.6701 85.5399 82.0001 82.2099 82.0001 78.1399V70.7399H72.7501C63.5741 70.7399 56.1001 63.2659 56.1001 54.0899C56.1001 44.9139 63.5741 37.4399 72.7501 37.4399H82.0001V30.0399C82.0001 25.9699 78.6701 22.6399 74.6001 22.6399H11.7001ZM70.9001 15.2399C70.9001 11.5029 68.1251 8.39492 64.4991 7.91392L70.9001 18.9399V15.2399Z" fill="white"></path>
      <path d="M86.6251 42.99H72.7501C66.6303 42.99 61.6501 47.9702 61.6501 54.09C61.6501 60.2098 66.6303 65.19 72.7501 65.19H86.6251C88.1569 65.19 89.4001 63.9468 89.4001 62.415V45.765C89.4001 44.2332 88.1569 42.99 86.6251 42.99ZM72.7501 57.79C70.7077 57.79 69.0501 56.1324 69.0501 54.09C69.0501 52.0476 70.7077 50.39 72.7501 50.39C74.7925 50.39 76.4501 52.0476 76.4501 54.09C76.4501 56.1324 74.7925 57.79 72.7501 57.79Z" fill="white"></path>
    </g>
    <defs>
      <clipPath id="clip0_347:355">
        <rect width="88.8" height="88.8" fill="white" transform="translate(0.600098 0.439941)"></rect>
      </clipPath>
    </defs>
  </symbol>
  <symbol fill="none" xmlns="http://www.w3.org/2000/svg" viewBox="0 0 71 49" id="sale_icon">
    <path d="M0 5C0 2.23858 2.23858 0 5 0H56.2515C58.1852 0 59.9455 1.11496 60.7719 2.86314L69.9899 22.3631C70.6294 23.7159 70.6294 25.2841 69.9899 26.6369L60.7719 46.1369C59.9455 47.885 58.1852 49 56.2515 49H5C2.23858 49 0 46.7614 0 44V5Z" fill="#219653"></path>
    <path d="M17.041 14.7344C17.041 12.8151 17.6641 11.2611 18.9102 10.0723C20.1562 8.86914 21.7891 8.26758 23.8086 8.26758C25.8568 8.26758 27.5039 8.86198 28.75 10.0508C29.9961 11.2253 30.6191 12.8223 30.6191 14.8418V16.3887C30.6191 18.3223 29.9961 19.8763 28.75 21.0508C27.5039 22.2253 25.8711 22.8125 23.8516 22.8125C21.8177 22.8125 20.1706 22.2253 18.9102 21.0508C17.6641 19.862 17.041 18.265 17.041 16.2598V14.7344ZM21.166 16.3887C21.166 17.248 21.4095 17.9427 21.8965 18.4727C22.3978 18.9883 23.0495 19.2461 23.8516 19.2461C24.6536 19.2461 25.291 18.9811 25.7637 18.4512C26.2363 17.9212 26.4727 17.2122 26.4727 16.3242V14.7344C26.4727 13.875 26.2363 13.1803 25.7637 12.6504C25.291 12.1204 24.6393 11.8555 23.8086 11.8555C23.0208 11.8555 22.3835 12.1204 21.8965 12.6504C21.4095 13.166 21.166 13.8893 21.166 14.8203V16.3887ZM31.9941 32.3301C31.9941 30.3965 32.6243 28.8424 33.8848 27.668C35.1452 26.4792 36.778 25.8848 38.7832 25.8848C40.8171 25.8848 42.457 26.472 43.7031 27.6465C44.9635 28.8066 45.5938 30.4108 45.5938 32.459V34.0059C45.5938 35.9251 44.9779 37.4792 43.7461 38.668C42.5143 39.8424 40.8743 40.4297 38.8262 40.4297C36.7637 40.4297 35.1094 39.8353 33.8633 38.6465C32.6172 37.4577 31.9941 35.8822 31.9941 33.9199V32.3301ZM36.1191 34.0059C36.1191 34.7936 36.377 35.4668 36.8926 36.0254C37.4082 36.584 38.0527 36.8633 38.8262 36.8633C40.5736 36.8633 41.4473 35.8965 41.4473 33.9629V32.3301C41.4473 31.4707 41.2038 30.7832 40.7168 30.2676C40.2298 29.7376 39.5853 29.4727 38.7832 29.4727C37.9811 29.4727 37.3366 29.7376 36.8496 30.2676C36.3626 30.7832 36.1191 31.4922 36.1191 32.3945V34.0059ZM25.0762 37.6582L22.0469 36.0254L37.3223 11.5762L40.3516 13.209L25.0762 37.6582Z" fill="#FFF5F5"></path>
  </symbol>
  <symbol fill="none" xmlns="http://www.w3.org/2000/svg" viewBox="0 0 25 8" id="arrow-left_icon">
    <path d="M0.646446 3.64644C0.451185 3.84171 0.451185 4.15829 0.646446 4.35355L3.82843 7.53553C4.02369 7.73079 4.34027 7.73079 4.53553 7.53553C4.7308 7.34027 4.7308 7.02369 4.53553 6.82843L1.70711 4L4.53553 1.17157C4.7308 0.976309 4.7308 0.659727 4.53553 0.464464C4.34027 0.269202 4.02369 0.269202 3.82843 0.464464L0.646446 3.64644ZM25 3.5L1 3.5L1 4.5L25 4.5L25 3.5Z" fill="#727272"></path>
  </symbol>
  <symbol fill="none" xmlns="http://www.w3.org/2000/svg" viewBox="0 0 25 8" id="arrow-right_icon">
    <path d="M24.3536 3.64644C24.5488 3.84171 24.5488 4.15829 24.3536 4.35355L21.1716 7.53553C20.9763 7.73079 20.6597 7.73079 20.4645 7.53553C20.2692 7.34027 20.2692 7.02369 20.4645 6.82843L23.2929 4L20.4645 1.17157C20.2692 0.976309 20.2692 0.659727 20.4645 0.464464C20.6597 0.269202 20.9763 0.269202 21.1716 0.464464L24.3536 3.64644ZM-4.37114e-08 3.5L24 3.5L24 4.5L4.37114e-08 4.5L-4.37114e-08 3.5Z" fill="#727272"></path>
  </symbol>
  <symbol fill="none" xmlns="http://www.w3.org/2000/svg" viewBox="0 0 93 93" id="comments_icon">
    <g clip-path="url(#clip0_347:340)">
      <path d="M92.44 36.8182C92.4328 30.4863 87.3019 25.3554 80.97 25.3482H49.8372C43.5053 25.3554 38.3744 30.4863 38.3672 36.8182V56.4811C38.3744 62.8129 43.5053 67.9439 49.8372 67.9511H59.6686C60.1031 67.9511 60.5199 68.1239 60.8271 68.4311L76.0543 83.6583V69.5896C76.0543 68.6847 76.788 67.9511 77.6929 67.9511H80.97C87.3019 67.9439 92.4328 62.8129 92.44 56.4811V36.8182ZM84.2472 58.1196H46.56C45.6551 58.1196 44.9215 57.3859 44.9215 56.4811C44.9215 55.5762 45.6551 54.8425 46.56 54.8425H84.2472C85.1521 54.8425 85.8857 55.5762 85.8857 56.4811C85.8857 57.3859 85.1521 58.1196 84.2472 58.1196ZM84.2472 48.2882H46.56C45.6551 48.2882 44.9215 47.5545 44.9215 46.6496C44.9215 45.7447 45.6551 45.0111 46.56 45.0111H84.2472C85.1521 45.0111 85.8857 45.7447 85.8857 46.6496C85.8857 47.5545 85.1521 48.2882 84.2472 48.2882ZM84.2472 38.4568H46.56C45.6551 38.4568 44.9215 37.7231 44.9215 36.8182C44.9215 35.9133 45.6551 35.1796 46.56 35.1796H84.2472C85.1521 35.1796 85.8857 35.9133 85.8857 36.8182C85.8857 37.7231 85.1521 38.4568 84.2472 38.4568Z" fill="white"></path>
      <path d="M29.0157 52.0454C29.3229 51.7382 29.7398 51.5654 30.1742 51.5654H35.0899V36.8182C35.0995 28.6774 41.6962 22.0807 49.8371 22.0711H54.7528V20.4325C54.7456 14.1006 49.6147 8.96969 43.2828 8.96249H12.1499C5.81807 8.96969 0.687132 14.1006 0.679932 20.4325V40.0954C0.687132 46.4272 5.81807 51.5582 12.1499 51.5654H15.4271C16.332 51.5654 17.0656 52.299 17.0656 53.2039V63.9955L29.0157 52.0454ZM7.23422 18.7939H41.6442C42.5491 18.7939 43.2828 19.5276 43.2828 20.4325C43.2828 21.3374 42.5491 22.0711 41.6442 22.0711H7.23422C6.32932 22.0711 5.59565 21.3374 5.59565 20.4325C5.59565 19.5276 6.32932 18.7939 7.23422 18.7939ZM7.23422 28.6254H31.8128C32.7177 28.6254 33.4514 29.359 33.4514 30.2639C33.4514 31.1688 32.7177 31.9025 31.8128 31.9025H7.23422C6.32932 31.9025 5.59565 31.1688 5.59565 30.2639C5.59565 29.359 6.32932 28.6254 7.23422 28.6254ZM7.23422 41.7339C6.32932 41.7339 5.59565 41.0002 5.59565 40.0954C5.59565 39.1905 6.32932 38.4568 7.23422 38.4568H30.1742C31.0791 38.4568 31.8128 39.1905 31.8128 40.0954C31.8128 41.0002 31.0791 41.7339 30.1742 41.7339H7.23422Z" fill="white"></path>
    </g>
    <defs>
      <clipPath id="clip0_347:340">
        <rect width="91.76" height="91.76" fill="white" transform="translate(0.679932 0.360001)"></rect>
      </clipPath>
    </defs>
  </symbol>
</svg>